<mxfile host="app.diagrams.net" agent="Mozilla/5.0 (Windows NT 10.0; Win64; x64) AppleWebKit/537.36 (KHTML, like Gecko) Chrome/136.0.0.0 Safari/537.36" version="27.0.6">
  <diagram id="C5RBs43oDa-KdzZeNtuy" name="Page-1">
    <mxGraphModel dx="2084" dy="1284" grid="1" gridSize="10" guides="1" tooltips="1" connect="1" arrows="1" fold="1" page="1" pageScale="1" pageWidth="1654" pageHeight="2336" math="0" shadow="0">
      <root>
        <mxCell id="WIyWlLk6GJQsqaUBKTNV-0" />
        <mxCell id="WIyWlLk6GJQsqaUBKTNV-1" parent="WIyWlLk6GJQsqaUBKTNV-0" />
        <mxCell id="OjdU5vpIyuOUDwXNaFLc-7" value="" style="edgeStyle=orthogonalEdgeStyle;rounded=0;orthogonalLoop=1;jettySize=auto;html=1;" edge="1" parent="WIyWlLk6GJQsqaUBKTNV-1" source="OjdU5vpIyuOUDwXNaFLc-0" target="OjdU5vpIyuOUDwXNaFLc-5">
          <mxGeometry relative="1" as="geometry" />
        </mxCell>
        <mxCell id="OjdU5vpIyuOUDwXNaFLc-0" value="Editar Hábitos" style="ellipse;whiteSpace=wrap;html=1;aspect=fixed;" vertex="1" parent="WIyWlLk6GJQsqaUBKTNV-1">
          <mxGeometry x="30" y="85" width="80" height="80" as="geometry" />
        </mxCell>
        <mxCell id="OjdU5vpIyuOUDwXNaFLc-4" value="&quot;Qual dos hábitos abaixo você deseja editar?&lt;div&gt;&lt;br&gt;&lt;/div&gt;&lt;div&gt;1 - Hábito 1&lt;/div&gt;&lt;div&gt;2 - Hábito 2&lt;/div&gt;&lt;div&gt;3 - Hábito 3&lt;/div&gt;&lt;div&gt;.&lt;/div&gt;&lt;div&gt;;&lt;/div&gt;&lt;div&gt;.&quot;&lt;/div&gt;" style="shape=document;whiteSpace=wrap;html=1;boundedLbl=1;" vertex="1" parent="WIyWlLk6GJQsqaUBKTNV-1">
          <mxGeometry x="300" y="40" width="260" height="170" as="geometry" />
        </mxCell>
        <mxCell id="OjdU5vpIyuOUDwXNaFLc-6" value="" style="edgeStyle=orthogonalEdgeStyle;rounded=0;orthogonalLoop=1;jettySize=auto;html=1;" edge="1" parent="WIyWlLk6GJQsqaUBKTNV-1" source="OjdU5vpIyuOUDwXNaFLc-5" target="OjdU5vpIyuOUDwXNaFLc-4">
          <mxGeometry relative="1" as="geometry" />
        </mxCell>
        <mxCell id="OjdU5vpIyuOUDwXNaFLc-5" value="Sistema busca nome dos hábitos na lista do banco de dados para apresentá-los no espaço adequado a seguir" style="rounded=0;whiteSpace=wrap;html=1;" vertex="1" parent="WIyWlLk6GJQsqaUBKTNV-1">
          <mxGeometry x="150" y="80" width="120" height="90" as="geometry" />
        </mxCell>
        <mxCell id="OjdU5vpIyuOUDwXNaFLc-11" value="" style="edgeStyle=orthogonalEdgeStyle;rounded=0;orthogonalLoop=1;jettySize=auto;html=1;" edge="1" parent="WIyWlLk6GJQsqaUBKTNV-1" source="OjdU5vpIyuOUDwXNaFLc-8" target="OjdU5vpIyuOUDwXNaFLc-10">
          <mxGeometry relative="1" as="geometry" />
        </mxCell>
        <mxCell id="OjdU5vpIyuOUDwXNaFLc-8" value="Busca o hábito na posição correspondente da lista ao número - 1" style="rounded=0;whiteSpace=wrap;html=1;" vertex="1" parent="WIyWlLk6GJQsqaUBKTNV-1">
          <mxGeometry x="370" y="330" width="120" height="90" as="geometry" />
        </mxCell>
        <mxCell id="OjdU5vpIyuOUDwXNaFLc-10" value="&quot;Qual das informações do hábito você deseja editar?&lt;div&gt;&lt;span style=&quot;background-color: transparent; color: light-dark(rgb(0, 0, 0), rgb(255, 255, 255));&quot;&gt;&lt;br&gt;&lt;/span&gt;&lt;/div&gt;&lt;div&gt;&lt;span style=&quot;background-color: transparent; color: light-dark(rgb(0, 0, 0), rgb(255, 255, 255));&quot;&gt;1 - Nome&lt;/span&gt;&lt;/div&gt;&lt;div&gt;&lt;span style=&quot;background-color: transparent; color: light-dark(rgb(0, 0, 0), rgb(255, 255, 255));&quot;&gt;2 - Descrição&amp;nbsp;&lt;/span&gt;&lt;/div&gt;&lt;div&gt;&lt;span style=&quot;background-color: transparent; color: light-dark(rgb(0, 0, 0), rgb(255, 255, 255));&quot;&gt;3 - Frequência&quot;&lt;/span&gt;&lt;/div&gt;" style="shape=document;whiteSpace=wrap;html=1;boundedLbl=1;" vertex="1" parent="WIyWlLk6GJQsqaUBKTNV-1">
          <mxGeometry x="355" y="440" width="150" height="130" as="geometry" />
        </mxCell>
        <mxCell id="OjdU5vpIyuOUDwXNaFLc-19" style="edgeStyle=orthogonalEdgeStyle;rounded=0;orthogonalLoop=1;jettySize=auto;html=1;exitX=0;exitY=0.5;exitDx=0;exitDy=0;entryX=0.5;entryY=0;entryDx=0;entryDy=0;" edge="1" parent="WIyWlLk6GJQsqaUBKTNV-1" source="OjdU5vpIyuOUDwXNaFLc-12" target="OjdU5vpIyuOUDwXNaFLc-13">
          <mxGeometry relative="1" as="geometry" />
        </mxCell>
        <mxCell id="OjdU5vpIyuOUDwXNaFLc-62" style="edgeStyle=orthogonalEdgeStyle;rounded=0;orthogonalLoop=1;jettySize=auto;html=1;exitX=1;exitY=0.5;exitDx=0;exitDy=0;entryX=0.5;entryY=0;entryDx=0;entryDy=0;" edge="1" parent="WIyWlLk6GJQsqaUBKTNV-1" source="OjdU5vpIyuOUDwXNaFLc-12" target="OjdU5vpIyuOUDwXNaFLc-43">
          <mxGeometry relative="1" as="geometry" />
        </mxCell>
        <mxCell id="OjdU5vpIyuOUDwXNaFLc-12" value="Escolha é igual a 1?" style="rhombus;whiteSpace=wrap;html=1;" vertex="1" parent="WIyWlLk6GJQsqaUBKTNV-1">
          <mxGeometry x="390" y="660" width="80" height="80" as="geometry" />
        </mxCell>
        <mxCell id="OjdU5vpIyuOUDwXNaFLc-18" style="edgeStyle=orthogonalEdgeStyle;rounded=0;orthogonalLoop=1;jettySize=auto;html=1;exitX=0;exitY=0.5;exitDx=0;exitDy=0;entryX=0.5;entryY=0;entryDx=0;entryDy=0;" edge="1" parent="WIyWlLk6GJQsqaUBKTNV-1" source="OjdU5vpIyuOUDwXNaFLc-13" target="OjdU5vpIyuOUDwXNaFLc-14">
          <mxGeometry relative="1" as="geometry" />
        </mxCell>
        <mxCell id="OjdU5vpIyuOUDwXNaFLc-108" style="edgeStyle=orthogonalEdgeStyle;rounded=0;orthogonalLoop=1;jettySize=auto;html=1;exitX=1;exitY=0.5;exitDx=0;exitDy=0;entryX=0.5;entryY=0;entryDx=0;entryDy=0;" edge="1" parent="WIyWlLk6GJQsqaUBKTNV-1" source="OjdU5vpIyuOUDwXNaFLc-13" target="OjdU5vpIyuOUDwXNaFLc-91">
          <mxGeometry relative="1" as="geometry" />
        </mxCell>
        <mxCell id="OjdU5vpIyuOUDwXNaFLc-13" value="Escolha é igual a 2?" style="rhombus;whiteSpace=wrap;html=1;" vertex="1" parent="WIyWlLk6GJQsqaUBKTNV-1">
          <mxGeometry x="300" y="760" width="80" height="80" as="geometry" />
        </mxCell>
        <mxCell id="OjdU5vpIyuOUDwXNaFLc-17" style="edgeStyle=orthogonalEdgeStyle;rounded=0;orthogonalLoop=1;jettySize=auto;html=1;exitX=0;exitY=0.5;exitDx=0;exitDy=0;entryX=1;entryY=0.5;entryDx=0;entryDy=0;" edge="1" parent="WIyWlLk6GJQsqaUBKTNV-1" source="OjdU5vpIyuOUDwXNaFLc-14" target="OjdU5vpIyuOUDwXNaFLc-15">
          <mxGeometry relative="1" as="geometry" />
        </mxCell>
        <mxCell id="OjdU5vpIyuOUDwXNaFLc-109" style="edgeStyle=orthogonalEdgeStyle;rounded=0;orthogonalLoop=1;jettySize=auto;html=1;exitX=1;exitY=0.5;exitDx=0;exitDy=0;entryX=0.5;entryY=0;entryDx=0;entryDy=0;" edge="1" parent="WIyWlLk6GJQsqaUBKTNV-1" source="OjdU5vpIyuOUDwXNaFLc-14" target="OjdU5vpIyuOUDwXNaFLc-64">
          <mxGeometry relative="1" as="geometry" />
        </mxCell>
        <mxCell id="OjdU5vpIyuOUDwXNaFLc-14" value="Escolha é igual a 3?" style="rhombus;whiteSpace=wrap;html=1;" vertex="1" parent="WIyWlLk6GJQsqaUBKTNV-1">
          <mxGeometry x="230" y="865" width="80" height="80" as="geometry" />
        </mxCell>
        <mxCell id="OjdU5vpIyuOUDwXNaFLc-16" style="edgeStyle=orthogonalEdgeStyle;rounded=0;orthogonalLoop=1;jettySize=auto;html=1;exitX=0;exitY=0.5;exitDx=0;exitDy=0;entryX=0;entryY=0.5;entryDx=0;entryDy=0;" edge="1" parent="WIyWlLk6GJQsqaUBKTNV-1" source="OjdU5vpIyuOUDwXNaFLc-15" target="OjdU5vpIyuOUDwXNaFLc-10">
          <mxGeometry relative="1" as="geometry" />
        </mxCell>
        <mxCell id="OjdU5vpIyuOUDwXNaFLc-15" value="&quot;Dígito inválido. Digite-o novamente&lt;span style=&quot;background-color: transparent; color: light-dark(rgb(0, 0, 0), rgb(255, 255, 255));&quot;&gt;&quot;&lt;/span&gt;" style="shape=document;whiteSpace=wrap;html=1;boundedLbl=1;" vertex="1" parent="WIyWlLk6GJQsqaUBKTNV-1">
          <mxGeometry x="120" y="875" width="90" height="60" as="geometry" />
        </mxCell>
        <mxCell id="OjdU5vpIyuOUDwXNaFLc-23" value="" style="group" vertex="1" connectable="0" parent="WIyWlLk6GJQsqaUBKTNV-1">
          <mxGeometry x="380" y="580" width="100" height="60" as="geometry" />
        </mxCell>
        <mxCell id="OjdU5vpIyuOUDwXNaFLc-21" value="" style="verticalLabelPosition=bottom;verticalAlign=top;html=1;shape=card;whiteSpace=wrap;size=20;arcSize=12;" vertex="1" parent="OjdU5vpIyuOUDwXNaFLc-23">
          <mxGeometry width="100" height="60" as="geometry" />
        </mxCell>
        <mxCell id="OjdU5vpIyuOUDwXNaFLc-22" value="Escolha" style="text;html=1;align=center;verticalAlign=middle;whiteSpace=wrap;rounded=0;" vertex="1" parent="OjdU5vpIyuOUDwXNaFLc-23">
          <mxGeometry x="20" y="15" width="60" height="30" as="geometry" />
        </mxCell>
        <mxCell id="OjdU5vpIyuOUDwXNaFLc-30" value="" style="group" vertex="1" connectable="0" parent="WIyWlLk6GJQsqaUBKTNV-1">
          <mxGeometry x="380" y="230" width="100" height="60" as="geometry" />
        </mxCell>
        <mxCell id="OjdU5vpIyuOUDwXNaFLc-31" value="" style="verticalLabelPosition=bottom;verticalAlign=top;html=1;shape=card;whiteSpace=wrap;size=20;arcSize=12;" vertex="1" parent="OjdU5vpIyuOUDwXNaFLc-30">
          <mxGeometry width="100" height="60" as="geometry" />
        </mxCell>
        <mxCell id="OjdU5vpIyuOUDwXNaFLc-32" value="Escolha" style="text;html=1;align=center;verticalAlign=middle;whiteSpace=wrap;rounded=0;" vertex="1" parent="OjdU5vpIyuOUDwXNaFLc-30">
          <mxGeometry x="20" y="15" width="60" height="30" as="geometry" />
        </mxCell>
        <mxCell id="OjdU5vpIyuOUDwXNaFLc-35" value="" style="endArrow=classic;html=1;rounded=0;entryX=0.5;entryY=0;entryDx=0;entryDy=0;exitX=0.5;exitY=1;exitDx=0;exitDy=0;exitPerimeter=0;" edge="1" parent="WIyWlLk6GJQsqaUBKTNV-1" source="OjdU5vpIyuOUDwXNaFLc-31" target="OjdU5vpIyuOUDwXNaFLc-8">
          <mxGeometry width="50" height="50" relative="1" as="geometry">
            <mxPoint x="370" y="380" as="sourcePoint" />
            <mxPoint x="420" y="330" as="targetPoint" />
          </mxGeometry>
        </mxCell>
        <mxCell id="OjdU5vpIyuOUDwXNaFLc-36" value="" style="endArrow=classic;html=1;rounded=0;entryX=0.5;entryY=0;entryDx=0;entryDy=0;entryPerimeter=0;exitX=0.504;exitY=0.86;exitDx=0;exitDy=0;exitPerimeter=0;" edge="1" parent="WIyWlLk6GJQsqaUBKTNV-1" source="OjdU5vpIyuOUDwXNaFLc-4" target="OjdU5vpIyuOUDwXNaFLc-31">
          <mxGeometry width="50" height="50" relative="1" as="geometry">
            <mxPoint x="370" y="380" as="sourcePoint" />
            <mxPoint x="420" y="330" as="targetPoint" />
          </mxGeometry>
        </mxCell>
        <mxCell id="OjdU5vpIyuOUDwXNaFLc-37" value="" style="endArrow=classic;html=1;rounded=0;entryX=0.5;entryY=0;entryDx=0;entryDy=0;entryPerimeter=0;exitX=0.499;exitY=0.869;exitDx=0;exitDy=0;exitPerimeter=0;" edge="1" parent="WIyWlLk6GJQsqaUBKTNV-1" source="OjdU5vpIyuOUDwXNaFLc-10" target="OjdU5vpIyuOUDwXNaFLc-21">
          <mxGeometry width="50" height="50" relative="1" as="geometry">
            <mxPoint x="370" y="380" as="sourcePoint" />
            <mxPoint x="420" y="330" as="targetPoint" />
          </mxGeometry>
        </mxCell>
        <mxCell id="OjdU5vpIyuOUDwXNaFLc-38" value="" style="endArrow=classic;html=1;rounded=0;entryX=0.5;entryY=0;entryDx=0;entryDy=0;exitX=0.5;exitY=1;exitDx=0;exitDy=0;exitPerimeter=0;" edge="1" parent="WIyWlLk6GJQsqaUBKTNV-1" source="OjdU5vpIyuOUDwXNaFLc-21" target="OjdU5vpIyuOUDwXNaFLc-12">
          <mxGeometry width="50" height="50" relative="1" as="geometry">
            <mxPoint x="370" y="380" as="sourcePoint" />
            <mxPoint x="420" y="330" as="targetPoint" />
          </mxGeometry>
        </mxCell>
        <mxCell id="OjdU5vpIyuOUDwXNaFLc-39" value="" style="group" vertex="1" connectable="0" parent="WIyWlLk6GJQsqaUBKTNV-1">
          <mxGeometry x="1233.75" y="850" width="120" height="40" as="geometry" />
        </mxCell>
        <mxCell id="OjdU5vpIyuOUDwXNaFLc-40" value="" style="verticalLabelPosition=bottom;verticalAlign=top;html=1;shape=card;whiteSpace=wrap;size=20;arcSize=12;" vertex="1" parent="OjdU5vpIyuOUDwXNaFLc-39">
          <mxGeometry x="2.5" width="112.5" height="40" as="geometry" />
        </mxCell>
        <mxCell id="OjdU5vpIyuOUDwXNaFLc-41" value="&lt;font style=&quot;font-size: 12px;&quot;&gt;Nome do&lt;/font&gt;&lt;div&gt;&lt;font style=&quot;font-size: 12px;&quot;&gt;hábito n&lt;/font&gt;&lt;/div&gt;" style="text;html=1;align=center;verticalAlign=middle;resizable=0;points=[];autosize=1;strokeColor=none;fillColor=none;" vertex="1" parent="OjdU5vpIyuOUDwXNaFLc-39">
          <mxGeometry x="25" width="70" height="40" as="geometry" />
        </mxCell>
        <mxCell id="OjdU5vpIyuOUDwXNaFLc-42" value="" style="edgeStyle=orthogonalEdgeStyle;rounded=0;orthogonalLoop=1;jettySize=auto;html=1;" edge="1" parent="WIyWlLk6GJQsqaUBKTNV-1" source="OjdU5vpIyuOUDwXNaFLc-43" target="OjdU5vpIyuOUDwXNaFLc-41">
          <mxGeometry relative="1" as="geometry" />
        </mxCell>
        <mxCell id="OjdU5vpIyuOUDwXNaFLc-43" value="&quot;Nome do Hábito (máximo de 50 caracteres):&quot;" style="shape=document;whiteSpace=wrap;html=1;boundedLbl=1;" vertex="1" parent="WIyWlLk6GJQsqaUBKTNV-1">
          <mxGeometry x="1241.25" y="740" width="105" height="87.5" as="geometry" />
        </mxCell>
        <mxCell id="OjdU5vpIyuOUDwXNaFLc-118" value="" style="edgeStyle=orthogonalEdgeStyle;rounded=0;orthogonalLoop=1;jettySize=auto;html=1;" edge="1" parent="WIyWlLk6GJQsqaUBKTNV-1" source="OjdU5vpIyuOUDwXNaFLc-44" target="OjdU5vpIyuOUDwXNaFLc-117">
          <mxGeometry relative="1" as="geometry" />
        </mxCell>
        <mxCell id="OjdU5vpIyuOUDwXNaFLc-44" value="&quot;Nome adicionado com sucesso. Retornando ao Menu Hábitos...&lt;span style=&quot;color: rgba(0, 0, 0, 0); font-family: monospace; font-size: 0px; text-align: start; text-wrap-mode: nowrap;&quot;&gt;%3CmxGraphModel%3E%3Croot%3E%3CmxCell%20id%3D%220%22%2F%3E%3CmxCell%20id%3D%221%22%20parent%3D%220%22%2F%3E%3CmxCell%20id%3D%222%22%20value%3D%22Menu%20H%C3%A1bitos%22%20style%3D%22ellipse%3BwhiteSpace%3Dwrap%3Bhtml%3D1%3Baspect%3Dfixed%3B%22%20vertex%3D%221%22%20parent%3D%221%22%3E%3CmxGeometry%20x%3D%22392.81%22%20y%3D%221275.5%22%20width%3D%2280%22%20height%3D%2280%22%20as%3D%22geometry%22%2F%3E%3C%2FmxCell%3E%3C%2Froot%3E%3C%2FmxGraphModel%3E&lt;/span&gt;&lt;span style=&quot;color: rgba(0, 0, 0, 0); font-family: monospace; font-size: 0px; text-align: start; text-wrap-mode: nowrap;&quot;&gt;%3CmxGraphModel%3E%3Croot%3E%3CmxCell%20id%3D%220%22%2F%3E%3CmxCell%20id%3D%221%22%20parent%3D%220%22%2F%3E%3CmxCell%20id%3D%222%22%20value%3D%22Menu%20H%C3%A1bitos%22%20style%3D%22ellipse%3BwhiteSpace%3Dwrap%3Bhtml%3D1%3Baspect%3Dfixed%3B%22%20vertex%3D%221%22%20parent%3D%221%22%3E%3CmxGeometry%20x%3D%22392.81%22%20y%3D%221275.5%22%20width%3D%2280%22%20height%3D%2280%22%20as%3D%22geometry%22%2F%3E%3C%2FmxCell%3E%3C%2Froot%3E%3C%2FmxGraphModel%3E&lt;/span&gt;&lt;span style=&quot;color: rgba(0, 0, 0, 0); font-family: monospace; font-size: 0px; text-align: start; text-wrap-mode: nowrap;&quot;&gt;%3CmxGraphModel%3E%3Croot%3E%3CmxCell%20id%3D%220%22%2F%3E%3CmxCell%20id%3D%221%22%20parent%3D%220%22%2F%3E%3CmxCell%20id%3D%222%22%20value%3D%22Menu%20H%C3%A1bitos%22%20style%3D%22ellipse%3BwhiteSpace%3Dwrap%3Bhtml%3D1%3Baspect%3Dfixed%3B%22%20vertex%3D%221%22%20parent%3D%221%22%3E%3CmxGeometry%20x%3D%22392.81%22%20y%3D%221275.5%22%20width%3D%2280%22%20height%3D%2280%22%20as%3D%22geometry%22%2F%3E%3C%2FmxCell%3E%3C%2Froot%3E%3C%2FmxGraphModel%3E&lt;/span&gt;&quot;" style="shape=document;whiteSpace=wrap;html=1;boundedLbl=1;" vertex="1" parent="WIyWlLk6GJQsqaUBKTNV-1">
          <mxGeometry x="990" y="1104.25" width="108.75" height="85.75" as="geometry" />
        </mxCell>
        <mxCell id="OjdU5vpIyuOUDwXNaFLc-45" value="o limite aplicável vai depender da capacidade de armazenamento do banco de dados e do número de usuários desse banco" style="ellipse;shape=cloud;whiteSpace=wrap;html=1;" vertex="1" parent="WIyWlLk6GJQsqaUBKTNV-1">
          <mxGeometry x="1368.75" y="778" width="160" height="132" as="geometry" />
        </mxCell>
        <mxCell id="OjdU5vpIyuOUDwXNaFLc-46" value="" style="endArrow=none;dashed=1;html=1;rounded=0;entryX=1;entryY=0.5;entryDx=0;entryDy=0;entryPerimeter=0;exitX=0.071;exitY=0.485;exitDx=0;exitDy=0;exitPerimeter=0;" edge="1" parent="WIyWlLk6GJQsqaUBKTNV-1" source="OjdU5vpIyuOUDwXNaFLc-45" target="OjdU5vpIyuOUDwXNaFLc-40">
          <mxGeometry width="50" height="50" relative="1" as="geometry">
            <mxPoint x="1418.75" y="1020" as="sourcePoint" />
            <mxPoint x="1468.75" y="970" as="targetPoint" />
          </mxGeometry>
        </mxCell>
        <mxCell id="OjdU5vpIyuOUDwXNaFLc-47" value="" style="edgeStyle=orthogonalEdgeStyle;rounded=0;orthogonalLoop=1;jettySize=auto;html=1;" edge="1" parent="WIyWlLk6GJQsqaUBKTNV-1" source="OjdU5vpIyuOUDwXNaFLc-49" target="OjdU5vpIyuOUDwXNaFLc-51">
          <mxGeometry relative="1" as="geometry" />
        </mxCell>
        <mxCell id="OjdU5vpIyuOUDwXNaFLc-48" value="V" style="edgeLabel;html=1;align=center;verticalAlign=middle;resizable=0;points=[];" vertex="1" connectable="0" parent="OjdU5vpIyuOUDwXNaFLc-47">
          <mxGeometry x="0.2426" y="2" relative="1" as="geometry">
            <mxPoint as="offset" />
          </mxGeometry>
        </mxCell>
        <mxCell id="OjdU5vpIyuOUDwXNaFLc-49" value="&lt;div&gt;&lt;br&gt;&lt;/div&gt;Nome do hábito n é maior que limite de caracteres da descrição?" style="rhombus;whiteSpace=wrap;html=1;" vertex="1" parent="WIyWlLk6GJQsqaUBKTNV-1">
          <mxGeometry x="1226.25" y="950" width="135" height="130" as="geometry" />
        </mxCell>
        <mxCell id="OjdU5vpIyuOUDwXNaFLc-50" value="" style="edgeStyle=orthogonalEdgeStyle;rounded=0;orthogonalLoop=1;jettySize=auto;html=1;" edge="1" parent="WIyWlLk6GJQsqaUBKTNV-1" source="OjdU5vpIyuOUDwXNaFLc-41" target="OjdU5vpIyuOUDwXNaFLc-49">
          <mxGeometry relative="1" as="geometry" />
        </mxCell>
        <mxCell id="OjdU5vpIyuOUDwXNaFLc-51" value="&quot;Nome inserido é maior que o limite de caracteres permitido&quot;" style="shape=document;whiteSpace=wrap;html=1;boundedLbl=1;" vertex="1" parent="WIyWlLk6GJQsqaUBKTNV-1">
          <mxGeometry x="1388.75" y="972.5" width="140" height="85" as="geometry" />
        </mxCell>
        <mxCell id="OjdU5vpIyuOUDwXNaFLc-52" value="" style="edgeStyle=orthogonalEdgeStyle;rounded=0;orthogonalLoop=1;jettySize=auto;html=1;" edge="1" parent="WIyWlLk6GJQsqaUBKTNV-1" source="OjdU5vpIyuOUDwXNaFLc-54" target="OjdU5vpIyuOUDwXNaFLc-57">
          <mxGeometry relative="1" as="geometry" />
        </mxCell>
        <mxCell id="OjdU5vpIyuOUDwXNaFLc-53" style="edgeStyle=orthogonalEdgeStyle;rounded=0;orthogonalLoop=1;jettySize=auto;html=1;exitX=0;exitY=0.5;exitDx=0;exitDy=0;entryX=1;entryY=0.5;entryDx=0;entryDy=0;" edge="1" parent="WIyWlLk6GJQsqaUBKTNV-1" source="OjdU5vpIyuOUDwXNaFLc-54" target="OjdU5vpIyuOUDwXNaFLc-44">
          <mxGeometry relative="1" as="geometry" />
        </mxCell>
        <mxCell id="OjdU5vpIyuOUDwXNaFLc-54" value="O nome do hábito tem elementos não permitidos (comandos maliciosos, sequências unicode inválidas ou códigos de terminal embutido)?" style="rhombus;whiteSpace=wrap;html=1;" vertex="1" parent="WIyWlLk6GJQsqaUBKTNV-1">
          <mxGeometry x="1139.37" y="1060.49" width="143.75" height="147.51" as="geometry" />
        </mxCell>
        <mxCell id="OjdU5vpIyuOUDwXNaFLc-55" value="" style="endArrow=classic;html=1;rounded=0;exitX=0;exitY=0.5;exitDx=0;exitDy=0;entryX=0.5;entryY=0;entryDx=0;entryDy=0;" edge="1" parent="WIyWlLk6GJQsqaUBKTNV-1">
          <mxGeometry width="50" height="50" relative="1" as="geometry">
            <mxPoint x="1226.25" y="1017.5" as="sourcePoint" />
            <mxPoint x="1211.245" y="1062.9899999999998" as="targetPoint" />
            <Array as="points">
              <mxPoint x="1211.75" y="1017.5" />
            </Array>
          </mxGeometry>
        </mxCell>
        <mxCell id="OjdU5vpIyuOUDwXNaFLc-56" value="F" style="text;html=1;align=center;verticalAlign=middle;resizable=0;points=[];autosize=1;strokeColor=none;fillColor=none;" vertex="1" parent="WIyWlLk6GJQsqaUBKTNV-1">
          <mxGeometry x="1109.37" y="1110" width="30" height="30" as="geometry" />
        </mxCell>
        <mxCell id="OjdU5vpIyuOUDwXNaFLc-57" value="&quot;O nome inserido possui componentes irregulares no texto. Escreva-a novamente&quot;" style="shape=document;whiteSpace=wrap;html=1;boundedLbl=1;" vertex="1" parent="WIyWlLk6GJQsqaUBKTNV-1">
          <mxGeometry x="1318.75" y="1094.62" width="140" height="81.75" as="geometry" />
        </mxCell>
        <mxCell id="OjdU5vpIyuOUDwXNaFLc-58" value="F" style="text;html=1;align=center;verticalAlign=middle;resizable=0;points=[];autosize=1;strokeColor=none;fillColor=none;" vertex="1" parent="WIyWlLk6GJQsqaUBKTNV-1">
          <mxGeometry x="1196.25" y="992.5" width="30" height="30" as="geometry" />
        </mxCell>
        <mxCell id="OjdU5vpIyuOUDwXNaFLc-59" value="V" style="text;html=1;align=center;verticalAlign=middle;resizable=0;points=[];autosize=1;strokeColor=none;fillColor=none;" vertex="1" parent="WIyWlLk6GJQsqaUBKTNV-1">
          <mxGeometry x="1235.75" y="1110" width="30" height="30" as="geometry" />
        </mxCell>
        <mxCell id="OjdU5vpIyuOUDwXNaFLc-60" value="" style="endArrow=none;html=1;rounded=0;entryX=1;entryY=0.5;entryDx=0;entryDy=0;" edge="1" parent="WIyWlLk6GJQsqaUBKTNV-1" target="OjdU5vpIyuOUDwXNaFLc-57">
          <mxGeometry width="50" height="50" relative="1" as="geometry">
            <mxPoint x="1528.75" y="1015" as="sourcePoint" />
            <mxPoint x="1118.75" y="920" as="targetPoint" />
            <Array as="points">
              <mxPoint x="1558.75" y="1015" />
              <mxPoint x="1558.75" y="1135" />
            </Array>
          </mxGeometry>
        </mxCell>
        <mxCell id="OjdU5vpIyuOUDwXNaFLc-61" value="V" style="text;html=1;align=center;verticalAlign=middle;resizable=0;points=[];autosize=1;strokeColor=none;fillColor=none;" vertex="1" parent="WIyWlLk6GJQsqaUBKTNV-1">
          <mxGeometry x="1278.75" y="1108" width="30" height="30" as="geometry" />
        </mxCell>
        <mxCell id="OjdU5vpIyuOUDwXNaFLc-63" value="" style="group" vertex="1" connectable="0" parent="WIyWlLk6GJQsqaUBKTNV-1">
          <mxGeometry x="274.37" y="1500" width="150" height="60" as="geometry" />
        </mxCell>
        <mxCell id="OjdU5vpIyuOUDwXNaFLc-66" value="" style="verticalLabelPosition=bottom;verticalAlign=top;html=1;shape=card;whiteSpace=wrap;size=20;arcSize=12;" vertex="1" parent="OjdU5vpIyuOUDwXNaFLc-63">
          <mxGeometry x="2.5" y="20" width="112.5" height="40" as="geometry" />
        </mxCell>
        <mxCell id="OjdU5vpIyuOUDwXNaFLc-67" value="&lt;font style=&quot;font-size: 12px;&quot;&gt;Frequência&lt;br&gt;&lt;/font&gt;" style="text;html=1;align=center;verticalAlign=middle;resizable=0;points=[];autosize=1;strokeColor=none;fillColor=none;" vertex="1" parent="OjdU5vpIyuOUDwXNaFLc-63">
          <mxGeometry x="20" y="25" width="80" height="30" as="geometry" />
        </mxCell>
        <mxCell id="OjdU5vpIyuOUDwXNaFLc-68" value="" style="edgeStyle=orthogonalEdgeStyle;rounded=0;orthogonalLoop=1;jettySize=auto;html=1;" edge="1" parent="WIyWlLk6GJQsqaUBKTNV-1" source="OjdU5vpIyuOUDwXNaFLc-70" target="OjdU5vpIyuOUDwXNaFLc-72">
          <mxGeometry relative="1" as="geometry" />
        </mxCell>
        <mxCell id="OjdU5vpIyuOUDwXNaFLc-69" value="V" style="edgeLabel;html=1;align=center;verticalAlign=middle;resizable=0;points=[];" vertex="1" connectable="0" parent="OjdU5vpIyuOUDwXNaFLc-68">
          <mxGeometry x="0.2426" y="2" relative="1" as="geometry">
            <mxPoint as="offset" />
          </mxGeometry>
        </mxCell>
        <mxCell id="OjdU5vpIyuOUDwXNaFLc-70" value="&lt;div&gt;&lt;br&gt;&lt;/div&gt;Frequência do hábito n é maior que limite de caracteres da descrição?" style="rhombus;whiteSpace=wrap;html=1;" vertex="1" parent="WIyWlLk6GJQsqaUBKTNV-1">
          <mxGeometry x="479.37" y="1590" width="135" height="130" as="geometry" />
        </mxCell>
        <mxCell id="OjdU5vpIyuOUDwXNaFLc-71" style="edgeStyle=orthogonalEdgeStyle;rounded=0;orthogonalLoop=1;jettySize=auto;html=1;exitX=1;exitY=0.5;exitDx=0;exitDy=0;entryX=0.5;entryY=0;entryDx=0;entryDy=0;" edge="1" parent="WIyWlLk6GJQsqaUBKTNV-1" source="OjdU5vpIyuOUDwXNaFLc-72" target="OjdU5vpIyuOUDwXNaFLc-64">
          <mxGeometry relative="1" as="geometry" />
        </mxCell>
        <mxCell id="OjdU5vpIyuOUDwXNaFLc-72" value="&quot;Frequência inserida é maior que o limite de caracteres permitido&quot;" style="shape=document;whiteSpace=wrap;html=1;boundedLbl=1;" vertex="1" parent="WIyWlLk6GJQsqaUBKTNV-1">
          <mxGeometry x="649.37" y="1612.5" width="140" height="85" as="geometry" />
        </mxCell>
        <mxCell id="OjdU5vpIyuOUDwXNaFLc-73" value="" style="edgeStyle=orthogonalEdgeStyle;rounded=0;orthogonalLoop=1;jettySize=auto;html=1;" edge="1" parent="WIyWlLk6GJQsqaUBKTNV-1" source="OjdU5vpIyuOUDwXNaFLc-75" target="OjdU5vpIyuOUDwXNaFLc-79">
          <mxGeometry relative="1" as="geometry" />
        </mxCell>
        <mxCell id="OjdU5vpIyuOUDwXNaFLc-86" value="" style="edgeStyle=orthogonalEdgeStyle;rounded=0;orthogonalLoop=1;jettySize=auto;html=1;" edge="1" parent="WIyWlLk6GJQsqaUBKTNV-1" source="OjdU5vpIyuOUDwXNaFLc-75" target="OjdU5vpIyuOUDwXNaFLc-85">
          <mxGeometry relative="1" as="geometry" />
        </mxCell>
        <mxCell id="OjdU5vpIyuOUDwXNaFLc-75" value="A frequência tem elementos não permitidos (comandos maliciosos, sequências unicode inválidas ou códigos de terminal embutido)?" style="rhombus;whiteSpace=wrap;html=1;" vertex="1" parent="WIyWlLk6GJQsqaUBKTNV-1">
          <mxGeometry x="399.99" y="1700.49" width="143.75" height="147.51" as="geometry" />
        </mxCell>
        <mxCell id="OjdU5vpIyuOUDwXNaFLc-76" value="" style="endArrow=classic;html=1;rounded=0;exitX=0;exitY=0.5;exitDx=0;exitDy=0;entryX=0.5;entryY=0;entryDx=0;entryDy=0;" edge="1" parent="WIyWlLk6GJQsqaUBKTNV-1">
          <mxGeometry width="50" height="50" relative="1" as="geometry">
            <mxPoint x="486.87" y="1657.5" as="sourcePoint" />
            <mxPoint x="471.8649999999999" y="1702.9899999999998" as="targetPoint" />
            <Array as="points">
              <mxPoint x="472.37" y="1657.5" />
            </Array>
          </mxGeometry>
        </mxCell>
        <mxCell id="OjdU5vpIyuOUDwXNaFLc-77" value="F" style="text;html=1;align=center;verticalAlign=middle;resizable=0;points=[];autosize=1;strokeColor=none;fillColor=none;" vertex="1" parent="WIyWlLk6GJQsqaUBKTNV-1">
          <mxGeometry x="369.99" y="1748" width="30" height="30" as="geometry" />
        </mxCell>
        <mxCell id="OjdU5vpIyuOUDwXNaFLc-78" style="edgeStyle=orthogonalEdgeStyle;rounded=0;orthogonalLoop=1;jettySize=auto;html=1;exitX=1;exitY=0.5;exitDx=0;exitDy=0;entryX=0.5;entryY=0;entryDx=0;entryDy=0;" edge="1" parent="WIyWlLk6GJQsqaUBKTNV-1" source="OjdU5vpIyuOUDwXNaFLc-79" target="OjdU5vpIyuOUDwXNaFLc-64">
          <mxGeometry relative="1" as="geometry">
            <Array as="points">
              <mxPoint x="809.37" y="1775" />
              <mxPoint x="809.37" y="1420" />
              <mxPoint x="333.37" y="1420" />
            </Array>
          </mxGeometry>
        </mxCell>
        <mxCell id="OjdU5vpIyuOUDwXNaFLc-79" value="&quot;A frequência inserido possui componentes irregulares no texto. Escreva-a novamente&quot;" style="shape=document;whiteSpace=wrap;html=1;boundedLbl=1;" vertex="1" parent="WIyWlLk6GJQsqaUBKTNV-1">
          <mxGeometry x="579.37" y="1734.62" width="140" height="81.75" as="geometry" />
        </mxCell>
        <mxCell id="OjdU5vpIyuOUDwXNaFLc-80" value="F" style="text;html=1;align=center;verticalAlign=middle;resizable=0;points=[];autosize=1;strokeColor=none;fillColor=none;" vertex="1" parent="WIyWlLk6GJQsqaUBKTNV-1">
          <mxGeometry x="456.87" y="1632.5" width="30" height="30" as="geometry" />
        </mxCell>
        <mxCell id="OjdU5vpIyuOUDwXNaFLc-81" value="V" style="text;html=1;align=center;verticalAlign=middle;resizable=0;points=[];autosize=1;strokeColor=none;fillColor=none;" vertex="1" parent="WIyWlLk6GJQsqaUBKTNV-1">
          <mxGeometry x="496.37" y="1750" width="30" height="30" as="geometry" />
        </mxCell>
        <mxCell id="OjdU5vpIyuOUDwXNaFLc-82" value="V" style="text;html=1;align=center;verticalAlign=middle;resizable=0;points=[];autosize=1;strokeColor=none;fillColor=none;" vertex="1" parent="WIyWlLk6GJQsqaUBKTNV-1">
          <mxGeometry x="539.37" y="1748" width="30" height="30" as="geometry" />
        </mxCell>
        <mxCell id="OjdU5vpIyuOUDwXNaFLc-83" value="" style="edgeStyle=orthogonalEdgeStyle;rounded=0;orthogonalLoop=1;jettySize=auto;html=1;" edge="1" parent="WIyWlLk6GJQsqaUBKTNV-1" source="OjdU5vpIyuOUDwXNaFLc-67" target="OjdU5vpIyuOUDwXNaFLc-70">
          <mxGeometry relative="1" as="geometry">
            <Array as="points">
              <mxPoint x="334.37" y="1570" />
              <mxPoint x="549.37" y="1570" />
            </Array>
          </mxGeometry>
        </mxCell>
        <mxCell id="OjdU5vpIyuOUDwXNaFLc-116" value="" style="edgeStyle=orthogonalEdgeStyle;rounded=0;orthogonalLoop=1;jettySize=auto;html=1;" edge="1" parent="WIyWlLk6GJQsqaUBKTNV-1" source="OjdU5vpIyuOUDwXNaFLc-85" target="OjdU5vpIyuOUDwXNaFLc-115">
          <mxGeometry relative="1" as="geometry" />
        </mxCell>
        <mxCell id="OjdU5vpIyuOUDwXNaFLc-85" value="&quot;Frequência adicionada com sucesso. Retornando ao Menu Hábitos...&quot;" style="shape=document;whiteSpace=wrap;html=1;boundedLbl=1;" vertex="1" parent="WIyWlLk6GJQsqaUBKTNV-1">
          <mxGeometry x="240" y="1740" width="113.12" height="100" as="geometry" />
        </mxCell>
        <mxCell id="OjdU5vpIyuOUDwXNaFLc-87" value="" style="group" vertex="1" connectable="0" parent="WIyWlLk6GJQsqaUBKTNV-1">
          <mxGeometry x="608.13" y="917.5" width="120" height="40" as="geometry" />
        </mxCell>
        <mxCell id="OjdU5vpIyuOUDwXNaFLc-88" value="" style="verticalLabelPosition=bottom;verticalAlign=top;html=1;shape=card;whiteSpace=wrap;size=20;arcSize=12;" vertex="1" parent="OjdU5vpIyuOUDwXNaFLc-87">
          <mxGeometry x="2.5" width="112.5" height="40" as="geometry" />
        </mxCell>
        <mxCell id="OjdU5vpIyuOUDwXNaFLc-89" value="&lt;font style=&quot;font-size: 12px;&quot;&gt;Descrição do&lt;/font&gt;&lt;div&gt;&lt;font style=&quot;font-size: 12px;&quot;&gt;hábito n&lt;/font&gt;&lt;/div&gt;" style="text;html=1;align=center;verticalAlign=middle;resizable=0;points=[];autosize=1;strokeColor=none;fillColor=none;" vertex="1" parent="OjdU5vpIyuOUDwXNaFLc-87">
          <mxGeometry x="15" width="90" height="40" as="geometry" />
        </mxCell>
        <mxCell id="OjdU5vpIyuOUDwXNaFLc-90" value="" style="edgeStyle=orthogonalEdgeStyle;rounded=0;orthogonalLoop=1;jettySize=auto;html=1;" edge="1" parent="WIyWlLk6GJQsqaUBKTNV-1" source="OjdU5vpIyuOUDwXNaFLc-91" target="OjdU5vpIyuOUDwXNaFLc-89">
          <mxGeometry relative="1" as="geometry" />
        </mxCell>
        <mxCell id="OjdU5vpIyuOUDwXNaFLc-91" value="&quot;Descrição (máximo de 200 caracteres):&quot;" style="shape=document;whiteSpace=wrap;html=1;boundedLbl=1;" vertex="1" parent="WIyWlLk6GJQsqaUBKTNV-1">
          <mxGeometry x="623.13" y="820" width="90" height="65" as="geometry" />
        </mxCell>
        <mxCell id="OjdU5vpIyuOUDwXNaFLc-113" value="" style="edgeStyle=orthogonalEdgeStyle;rounded=0;orthogonalLoop=1;jettySize=auto;html=1;" edge="1" parent="WIyWlLk6GJQsqaUBKTNV-1" source="OjdU5vpIyuOUDwXNaFLc-92" target="OjdU5vpIyuOUDwXNaFLc-112">
          <mxGeometry relative="1" as="geometry" />
        </mxCell>
        <mxCell id="OjdU5vpIyuOUDwXNaFLc-92" value="&quot;Descrição adicionada com sucesso. Retornando ao Menu Hábitos...&quot;" style="shape=document;whiteSpace=wrap;html=1;boundedLbl=1;" vertex="1" parent="WIyWlLk6GJQsqaUBKTNV-1">
          <mxGeometry x="370" y="1153.24" width="125.63" height="97.01" as="geometry" />
        </mxCell>
        <mxCell id="OjdU5vpIyuOUDwXNaFLc-93" value="o limite aplicável vai depender da capacidade de armazenamento do banco de dados e do número de usuários desse banco" style="ellipse;shape=cloud;whiteSpace=wrap;html=1;" vertex="1" parent="WIyWlLk6GJQsqaUBKTNV-1">
          <mxGeometry x="743.13" y="845.5" width="160" height="132" as="geometry" />
        </mxCell>
        <mxCell id="OjdU5vpIyuOUDwXNaFLc-94" value="" style="endArrow=none;dashed=1;html=1;rounded=0;entryX=1;entryY=0.5;entryDx=0;entryDy=0;entryPerimeter=0;exitX=0.071;exitY=0.485;exitDx=0;exitDy=0;exitPerimeter=0;" edge="1" parent="WIyWlLk6GJQsqaUBKTNV-1" source="OjdU5vpIyuOUDwXNaFLc-93" target="OjdU5vpIyuOUDwXNaFLc-88">
          <mxGeometry width="50" height="50" relative="1" as="geometry">
            <mxPoint x="793.13" y="1087.5" as="sourcePoint" />
            <mxPoint x="843.13" y="1037.5" as="targetPoint" />
          </mxGeometry>
        </mxCell>
        <mxCell id="OjdU5vpIyuOUDwXNaFLc-95" value="" style="edgeStyle=orthogonalEdgeStyle;rounded=0;orthogonalLoop=1;jettySize=auto;html=1;" edge="1" parent="WIyWlLk6GJQsqaUBKTNV-1" source="OjdU5vpIyuOUDwXNaFLc-97" target="OjdU5vpIyuOUDwXNaFLc-99">
          <mxGeometry relative="1" as="geometry" />
        </mxCell>
        <mxCell id="OjdU5vpIyuOUDwXNaFLc-96" value="V" style="edgeLabel;html=1;align=center;verticalAlign=middle;resizable=0;points=[];" vertex="1" connectable="0" parent="OjdU5vpIyuOUDwXNaFLc-95">
          <mxGeometry x="0.2426" y="2" relative="1" as="geometry">
            <mxPoint as="offset" />
          </mxGeometry>
        </mxCell>
        <mxCell id="OjdU5vpIyuOUDwXNaFLc-97" value="&lt;div&gt;&lt;br&gt;&lt;/div&gt;Descrição do hábito n é maior que limite de caracteres da descrição?" style="rhombus;whiteSpace=wrap;html=1;" vertex="1" parent="WIyWlLk6GJQsqaUBKTNV-1">
          <mxGeometry x="600.63" y="1017.5" width="135" height="130" as="geometry" />
        </mxCell>
        <mxCell id="OjdU5vpIyuOUDwXNaFLc-98" value="" style="edgeStyle=orthogonalEdgeStyle;rounded=0;orthogonalLoop=1;jettySize=auto;html=1;" edge="1" parent="WIyWlLk6GJQsqaUBKTNV-1" source="OjdU5vpIyuOUDwXNaFLc-89" target="OjdU5vpIyuOUDwXNaFLc-97">
          <mxGeometry relative="1" as="geometry" />
        </mxCell>
        <mxCell id="OjdU5vpIyuOUDwXNaFLc-99" value="&quot;Descrição maior que&quot; + limite de caracteres + &quot;, limite de caracteres permitido&quot;" style="shape=document;whiteSpace=wrap;html=1;boundedLbl=1;" vertex="1" parent="WIyWlLk6GJQsqaUBKTNV-1">
          <mxGeometry x="763.13" y="1040" width="140" height="85" as="geometry" />
        </mxCell>
        <mxCell id="OjdU5vpIyuOUDwXNaFLc-100" value="" style="edgeStyle=orthogonalEdgeStyle;rounded=0;orthogonalLoop=1;jettySize=auto;html=1;" edge="1" parent="WIyWlLk6GJQsqaUBKTNV-1" source="OjdU5vpIyuOUDwXNaFLc-101" target="OjdU5vpIyuOUDwXNaFLc-104">
          <mxGeometry relative="1" as="geometry" />
        </mxCell>
        <mxCell id="OjdU5vpIyuOUDwXNaFLc-110" style="edgeStyle=orthogonalEdgeStyle;rounded=0;orthogonalLoop=1;jettySize=auto;html=1;exitX=0;exitY=0.5;exitDx=0;exitDy=0;entryX=1;entryY=0.5;entryDx=0;entryDy=0;" edge="1" parent="WIyWlLk6GJQsqaUBKTNV-1" source="OjdU5vpIyuOUDwXNaFLc-101" target="OjdU5vpIyuOUDwXNaFLc-92">
          <mxGeometry relative="1" as="geometry" />
        </mxCell>
        <mxCell id="OjdU5vpIyuOUDwXNaFLc-101" value="A descrição tem elementos não permitidos (comandos maliciosos, sequências unicode inválidas ou códigos de terminal embutido)?" style="rhombus;whiteSpace=wrap;html=1;" vertex="1" parent="WIyWlLk6GJQsqaUBKTNV-1">
          <mxGeometry x="513.75" y="1127.99" width="143.75" height="147.51" as="geometry" />
        </mxCell>
        <mxCell id="OjdU5vpIyuOUDwXNaFLc-102" value="" style="endArrow=classic;html=1;rounded=0;exitX=0;exitY=0.5;exitDx=0;exitDy=0;entryX=0.5;entryY=0;entryDx=0;entryDy=0;" edge="1" parent="WIyWlLk6GJQsqaUBKTNV-1">
          <mxGeometry width="50" height="50" relative="1" as="geometry">
            <mxPoint x="600.63" y="1085" as="sourcePoint" />
            <mxPoint x="585.6249999999999" y="1130.4899999999998" as="targetPoint" />
            <Array as="points">
              <mxPoint x="586.13" y="1085" />
            </Array>
          </mxGeometry>
        </mxCell>
        <mxCell id="OjdU5vpIyuOUDwXNaFLc-104" value="&quot;Sua descrição possui componentes irregulares no texto. Escreva-a novamente&quot;" style="shape=document;whiteSpace=wrap;html=1;boundedLbl=1;" vertex="1" parent="WIyWlLk6GJQsqaUBKTNV-1">
          <mxGeometry x="693.13" y="1162.12" width="140" height="81.75" as="geometry" />
        </mxCell>
        <mxCell id="OjdU5vpIyuOUDwXNaFLc-105" value="F" style="text;html=1;align=center;verticalAlign=middle;resizable=0;points=[];autosize=1;strokeColor=none;fillColor=none;" vertex="1" parent="WIyWlLk6GJQsqaUBKTNV-1">
          <mxGeometry x="570.63" y="1060" width="30" height="30" as="geometry" />
        </mxCell>
        <mxCell id="OjdU5vpIyuOUDwXNaFLc-106" value="V" style="text;html=1;align=center;verticalAlign=middle;resizable=0;points=[];autosize=1;strokeColor=none;fillColor=none;" vertex="1" parent="WIyWlLk6GJQsqaUBKTNV-1">
          <mxGeometry x="610.13" y="1177.5" width="30" height="30" as="geometry" />
        </mxCell>
        <mxCell id="OjdU5vpIyuOUDwXNaFLc-107" value="" style="endArrow=none;html=1;rounded=0;entryX=1;entryY=0.5;entryDx=0;entryDy=0;" edge="1" parent="WIyWlLk6GJQsqaUBKTNV-1" target="OjdU5vpIyuOUDwXNaFLc-104">
          <mxGeometry width="50" height="50" relative="1" as="geometry">
            <mxPoint x="903.13" y="1082.5" as="sourcePoint" />
            <mxPoint x="493.13" y="987.5" as="targetPoint" />
            <Array as="points">
              <mxPoint x="933.13" y="1082.5" />
              <mxPoint x="933.13" y="1202.5" />
            </Array>
          </mxGeometry>
        </mxCell>
        <mxCell id="OjdU5vpIyuOUDwXNaFLc-64" value="&quot;Insira a frequência diária desejada para o hábito (máximo: 50 caracteres):&quot;" style="shape=document;whiteSpace=wrap;html=1;boundedLbl=1;" vertex="1" parent="WIyWlLk6GJQsqaUBKTNV-1">
          <mxGeometry x="250" y="1440" width="166.25" height="60" as="geometry" />
        </mxCell>
        <mxCell id="OjdU5vpIyuOUDwXNaFLc-65" value="" style="endArrow=classic;html=1;rounded=0;entryX=0.5;entryY=0;entryDx=0;entryDy=0;entryPerimeter=0;exitX=0.5;exitY=0.878;exitDx=0;exitDy=0;exitPerimeter=0;" edge="1" parent="WIyWlLk6GJQsqaUBKTNV-1" source="OjdU5vpIyuOUDwXNaFLc-64" target="OjdU5vpIyuOUDwXNaFLc-66">
          <mxGeometry width="50" height="50" relative="1" as="geometry">
            <mxPoint x="318.12" y="1540" as="sourcePoint" />
            <mxPoint x="368.12" y="1490" as="targetPoint" />
          </mxGeometry>
        </mxCell>
        <mxCell id="OjdU5vpIyuOUDwXNaFLc-112" value="Menu Hábitos" style="ellipse;whiteSpace=wrap;html=1;aspect=fixed;" vertex="1" parent="WIyWlLk6GJQsqaUBKTNV-1">
          <mxGeometry x="392.81" y="1275.5" width="80" height="80" as="geometry" />
        </mxCell>
        <mxCell id="OjdU5vpIyuOUDwXNaFLc-115" value="Menu Hábitos" style="ellipse;whiteSpace=wrap;html=1;aspect=fixed;" vertex="1" parent="WIyWlLk6GJQsqaUBKTNV-1">
          <mxGeometry x="256.56" y="1860" width="80" height="80" as="geometry" />
        </mxCell>
        <mxCell id="OjdU5vpIyuOUDwXNaFLc-117" value="Menu Hábitos" style="ellipse;whiteSpace=wrap;html=1;aspect=fixed;" vertex="1" parent="WIyWlLk6GJQsqaUBKTNV-1">
          <mxGeometry x="1004.37" y="1208" width="80" height="80" as="geometry" />
        </mxCell>
      </root>
    </mxGraphModel>
  </diagram>
</mxfile>
